<svg xmlns="http://www.w3.org/2000/svg" viewBox="0 0 1280 720" width="1280" height="720">
  
  <rect width="1280" height="720" fill="#FFFFFF" />
  
  
  <rect x="0" y="0" width="1280" height="4" fill="#2E9E6B" />
  
  
  <text x="60" y="60" font-family="Microsoft YaHei, PingFang SC, Arial, sans-serif" font-size="18" font-weight="500" fill="#2E9E6B">重点站点分析 · 03</text>
  
  
  <text x="60" y="110" font-family="Microsoft YaHei, PingFang SC, Arial, sans-serif" font-size="42" font-weight="700" fill="#1B3A5C">ru-ru 俄语站 — SEO 驱动型</text>
  
  
  <line x1="60" y1="135" x2="1220" y2="135" stroke="#1B3A5C" stroke-width="2" />
  
  
  <text x="60" y="260" font-family="Georgia, Microsoft YaHei, PingFang SC, serif" font-size="72" font-weight="700" fill="#2E9E6B">28.4%</text>
  <text x="300" y="260" font-family="Microsoft YaHei, PingFang SC, Arial, sans-serif" font-size="24" fill="#5C6675">SEO 占比 · 全站最高</text>
  
  <text x="60" y="300" font-family="Microsoft YaHei, PingFang SC, Arial, sans-serif" font-size="24" fill="#1D2430">俄罗斯用户大量通过搜索引擎自然流入</text>
  <text x="60" y="335" font-family="Microsoft YaHei, PingFang SC, Arial, sans-serif" font-size="18" fill="#5C6675">站内占比全站最低（31.7%），对投放依赖低</text>
  
  
  <text x="60" y="395" font-family="Microsoft YaHei, PingFang SC, Arial, sans-serif" font-size="16" fill="#8A94A6">PV 68,933（第 5 名）</text>
  <text x="60" y="425" font-family="Microsoft YaHei, PingFang SC, Arial, sans-serif" font-size="16" fill="#8A94A6">UV 16,647（第 5 名）</text>
  <text x="60" y="455" font-family="Microsoft YaHei, PingFang SC, Arial, sans-serif" font-size="16" fill="#8A94A6">PV 占比 3.4%</text>
  
  
  <path fill="#F5F7FA" d="M544,170 H1196 A4,4 0 0 1 1200,174 V586 A4,4 0 0 1 1196,590 H544 A4,4 0 0 1 540,586 V174 A4,4 0 0 1 544,170 Z" />
  <text x="580" y="215" font-family="Microsoft YaHei, PingFang SC, Arial, sans-serif" font-size="24" font-weight="700" fill="#1B3A5C">渠道构成</text>
  
  
  <text x="580" y="265" font-family="Microsoft YaHei, PingFang SC, Arial, sans-serif" font-size="18" fill="#1D2430">SEO</text>
  <rect x="680" y="252" width="460" height="22" fill="#DCE2EA" />
  <rect x="680" y="252" width="131" height="22" fill="#2E9E6B" />
  <text x="1150" y="269" font-family="Georgia, Microsoft YaHei, PingFang SC, serif" font-size="18" font-weight="700" fill="#2E9E6B">28.4%</text>
  
  
  <text x="580" y="315" font-family="Microsoft YaHei, PingFang SC, Arial, sans-serif" font-size="18" fill="#1D2430">站内</text>
  <rect x="680" y="302" width="460" height="22" fill="#DCE2EA" />
  <rect x="680" y="302" width="146" height="22" fill="#1B3A5C" />
  <text x="1150" y="319" font-family="Georgia, Microsoft YaHei, PingFang SC, serif" font-size="18" font-weight="700" fill="#1B3A5C">31.7%</text>
  
  
  <text x="580" y="365" font-family="Microsoft YaHei, PingFang SC, Arial, sans-serif" font-size="18" fill="#1D2430">APP-PUSH</text>
  <rect x="680" y="352" width="460" height="22" fill="#DCE2EA" />
  <rect x="680" y="352" width="67" height="22" fill="#E46C2C" />
  <text x="1150" y="369" font-family="Georgia, Microsoft YaHei, PingFang SC, serif" font-size="18" font-weight="700" fill="#E46C2C">14.5%</text>
  
  
  <text x="580" y="415" font-family="Microsoft YaHei, PingFang SC, Arial, sans-serif" font-size="18" fill="#1D2430">PPC</text>
  <rect x="680" y="402" width="460" height="22" fill="#DCE2EA" />
  <rect x="680" y="402" width="55" height="22" fill="#D64545" />
  <text x="1150" y="419" font-family="Georgia, Microsoft YaHei, PingFang SC, serif" font-size="18" font-weight="700" fill="#D64545">12.0%</text>
  
  
  <text x="580" y="465" font-family="Microsoft YaHei, PingFang SC, Arial, sans-serif" font-size="18" fill="#1D2430">Partner</text>
  <rect x="680" y="452" width="460" height="22" fill="#DCE2EA" />
  <rect x="680" y="452" width="49" height="22" fill="#4A90A4" />
  <text x="1150" y="469" font-family="Georgia, Microsoft YaHei, PingFang SC, serif" font-size="18" font-weight="700" fill="#4A90A4">10.6%</text>
  
  
  <path fill="#F5F7FA" d="M64,480 H496 A4,4 0 0 1 500,484 V586 A4,4 0 0 1 496,590 H64 A4,4 0 0 1 60,586 V484 A4,4 0 0 1 64,480 Z" />
  <line x1="60" y1="480" x2="60" y2="590" stroke="#2E9E6B" stroke-width="3" />
  <text x="88" y="515" font-family="Microsoft YaHei, PingFang SC, Arial, sans-serif" font-size="22" font-weight="700" fill="#1B3A5C">运营策略</text>
  <text x="88" y="550" font-family="Microsoft YaHei, PingFang SC, Arial, sans-serif" font-size="18" fill="#1D2430">加大 SEO 内容建设</text>
  <text x="88" y="578" font-family="Microsoft YaHei, PingFang SC, Arial, sans-serif" font-size="18" fill="#1D2430">关键词覆盖 + 自然流量增长</text>
  
  
  <text x="60" y="660" font-family="Microsoft YaHei, PingFang SC, Arial, sans-serif" font-size="14" fill="#8A94A6">数据来源：dw_ticketdb.edw_log_ttd_traffic_order_d_ext</text>
  <text x="1220" y="660" font-family="Microsoft YaHei, PingFang SC, Arial, sans-serif" font-size="14" fill="#8A94A6" text-anchor="end">09</text>
</svg>